<svg width="62" height="62" viewBox="0 0 62 62" fill="none" xmlns="http://www.w3.org/2000/svg">
<path d="M0 31C0 13.8792 13.8792 0 31 0V0C48.1208 0 62 13.8792 62 31V31C62 48.1208 48.1208 62 31 62V62C13.8792 62 0 48.1208 0 31V31Z" fill="#030712"/>
<g clip-path="url(#clip0_422_32276)">
<path d="M35.9413 30C33.7581 30 31.8434 31.0092 30.6456 32.5284C29.4429 31.0248 27.5263 30.0544 25.357 30.0544C21.7221 30.0544 18.75 32.6877 18.75 36.1314C18.75 37.9162 19.555 39.1654 20.6597 40.3586L20.6825 40.3832L20.707 40.4064L29.9036 49.0928L30.655 49.8025L31.4059 49.0924L40.592 40.4059L40.616 40.3831L40.6385 40.3589C41.7424 39.1676 42.55 37.9263 42.55 36.1407C42.55 32.7136 39.5922 30 35.9413 30Z" stroke="#E11D48" stroke-width="2.2"/>
<path d="M18.4 24.5385C21.5231 27.0369 26.0432 27.3709 29.557 25.363L31 24.5385M31 24.5385L32.443 25.363C35.9569 27.3709 40.477 27.0369 43.6 24.5385M31 24.5385C27.0791 22.1256 26.3008 17.1025 29.3317 13.7718L31 11.9385L32.6683 13.7718C35.6993 17.1025 34.9209 22.1256 31 24.5385Z" stroke="#E11D48" stroke-width="2.2" stroke-linecap="round"/>
</g>
<defs>
<clipPath id="clip0_422_32276">
<rect width="28" height="42" fill="white" transform="translate(17 10)"/>
</clipPath>
</defs>
</svg>
