<svg width="48" height="62" viewBox="0 0 48 62" fill="none" xmlns="http://www.w3.org/2000/svg">
<g clip-path="url(#clip0_196_32095)">
<path d="M28.9413 30.3539C26.7581 30.3539 24.8434 31.3631 23.6456 32.8823C22.4429 31.3787 20.5263 30.4083 18.357 30.4083C14.7221 30.4083 11.75 33.0416 11.75 36.4852C11.75 38.27 12.555 39.5193 13.6597 40.7124L13.6825 40.7371L13.707 40.7603L22.9036 49.4467L23.655 50.1564L24.4059 49.4463L33.592 40.7598L33.616 40.737L33.6385 40.7128C34.7424 39.5214 35.55 38.2802 35.55 36.4946C35.55 33.0675 32.5922 30.3539 28.9413 30.3539Z" stroke="white" stroke-width="2.2"/>
<path d="M11.4 24.5385C14.5231 27.0369 19.0432 27.371 22.557 25.363L24 24.5385M24 24.5385L25.443 25.363C28.9569 27.371 33.477 27.0369 36.6 24.5385M24 24.5385C20.0791 22.1256 19.3008 17.1025 22.3317 13.7718L24 11.9385L25.6683 13.7718C28.6993 17.1025 27.9209 22.1256 24 24.5385Z" stroke="white" stroke-width="2.2" stroke-linecap="round"/>
</g>
<defs>
<clipPath id="clip0_196_32095">
<rect width="28" height="42" fill="white" transform="translate(10 10)"/>
</clipPath>
</defs>
</svg>
