<svg width="48" height="62" viewBox="0 0 48 62" fill="none" xmlns="http://www.w3.org/2000/svg">
<g clip-path="url(#clip0_194_27659)">
<path d="M28.9413 30.3538C26.7581 30.3538 24.8434 31.363 23.6456 32.8822C22.4429 31.3786 20.5263 30.4082 18.357 30.4082C14.7221 30.4082 11.75 33.0415 11.75 36.4852C11.75 38.27 12.555 39.5192 13.6597 40.7124L13.6825 40.737L13.707 40.7602L22.9036 49.4466L23.655 50.1563L24.4059 49.4462L33.592 40.7597L33.616 40.7369L33.6385 40.7127C34.7424 39.5214 35.55 38.2801 35.55 36.4945C35.55 33.0674 32.5922 30.3538 28.9413 30.3538Z" stroke="#E11D48" stroke-width="2.2"/>
<path d="M11.4 24.5385C14.5231 27.0369 19.0432 27.371 22.557 25.363L24 24.5385M24 24.5385L25.443 25.363C28.9569 27.371 33.477 27.0369 36.6 24.5385M24 24.5385C20.0791 22.1256 19.3008 17.1025 22.3317 13.7718L24 11.9385L25.6683 13.7718C28.6993 17.1025 27.9209 22.1256 24 24.5385Z" stroke="#E11D48" stroke-width="2.2" stroke-linecap="round"/>
</g>
<defs>
<clipPath id="clip0_194_27659">
<rect width="28" height="42" fill="white" transform="translate(10 10)"/>
</clipPath>
</defs>
</svg>
