<svg width="62" height="62" viewBox="0 0 62 62" fill="none" xmlns="http://www.w3.org/2000/svg">
<rect width="62" height="62" rx="31" fill="#09090B"/>
<g clip-path="url(#clip0_196_32107)">
<path d="M35.9413 30.3539C33.7581 30.3539 31.8434 31.3631 30.6456 32.8823C29.4429 31.3787 27.5263 30.4083 25.357 30.4083C21.7221 30.4083 18.75 33.0416 18.75 36.4852C18.75 38.27 19.555 39.5193 20.6597 40.7124L20.6825 40.7371L20.707 40.7603L29.9036 49.4467L30.655 50.1564L31.4059 49.4463L40.592 40.7598L40.616 40.737L40.6385 40.7128C41.7424 39.5214 42.55 38.2802 42.55 36.4946C42.55 33.0675 39.5922 30.3539 35.9413 30.3539Z" stroke="#E11D48" stroke-width="2.2"/>
<path d="M18.4 24.5385C21.5231 27.0369 26.0432 27.371 29.557 25.363L31 24.5385M31 24.5385L32.443 25.363C35.9569 27.371 40.477 27.0369 43.6 24.5385M31 24.5385C27.0791 22.1256 26.3008 17.1025 29.3317 13.7718L31 11.9385L32.6683 13.7718C35.6993 17.1025 34.9209 22.1256 31 24.5385Z" stroke="#E11D48" stroke-width="2.2" stroke-linecap="round"/>
</g>
<defs>
<clipPath id="clip0_196_32107">
<rect width="28" height="42" fill="white" transform="translate(17 10)"/>
</clipPath>
</defs>
</svg>
